HIERARCHY
ROOT joint_Root
{
	OFFSET 0.0 0.0 0.0
	CHANNELS 6 Xposition Yposition Zposition Zrotation Xrotation Yrotation 
	JOINT Hips
	{
		OFFSET 4.5925 91.4895 -427.239
		CHANNELS 6 Xposition Yposition Zposition Zrotation Xrotation Yrotation 
		JOINT Spine
		{
			OFFSET 15.7357 0.0 0.0
			CHANNELS 6 Xposition Yposition Zposition Zrotation Xrotation Yrotation 
			JOINT Chest
			{
				OFFSET 8.98455 -0.406207 0.0
				CHANNELS 6 Xposition Yposition Zposition Zrotation Xrotation Yrotation 
				JOINT Neck
				{
					OFFSET 16.3773 0.0 0.0
					CHANNELS 6 Xposition Yposition Zposition Zrotation Xrotation Yrotation 
					JOINT Head
					{
						OFFSET 6.45672 0.0 0.0
						CHANNELS 6 Xposition Yposition Zposition Zrotation Xrotation Yrotation 
						End Site
						{
							OFFSET 0.0 0.0 0.0
						}
					}
				}
				JOINT Shoulder_L
				{
					OFFSET 12.9942 -0.242716 4.98039
					CHANNELS 6 Xposition Yposition Zposition Zrotation Xrotation Yrotation 
					JOINT UpperArm_L
					{
						OFFSET 5.34809 0.0 0.0
						CHANNELS 6 Xposition Yposition Zposition Zrotation Xrotation Yrotation 
						JOINT LowerArm_L
						{
							OFFSET 24.3286 1.87007e-05 0.0
							CHANNELS 6 Xposition Yposition Zposition Zrotation Xrotation Yrotation 
							JOINT Hand_L
							{
								OFFSET 22.2916 0.0 0.0
								CHANNELS 6 Xposition Yposition Zposition Zrotation Xrotation Yrotation 
								End Site
								{
									OFFSET 0.0 0.0 0.0
								}
							}
						}
					}
				}
				JOINT Shoulder_R
				{
					OFFSET 12.9945 -0.242716 -4.98039
					CHANNELS 6 Xposition Yposition Zposition Zrotation Xrotation Yrotation 
					JOINT UpperArm_R
					{
						OFFSET -5.34813 0.0 0.0
						CHANNELS 6 Xposition Yposition Zposition Zrotation Xrotation Yrotation 
						JOINT LowerArm_R
						{
							OFFSET -24.3289 0.000322201 0.0
							CHANNELS 6 Xposition Yposition Zposition Zrotation Xrotation Yrotation 
							JOINT Hand_R
							{
								OFFSET -22.2915 -0.000108084 0.0
								CHANNELS 6 Xposition Yposition Zposition Zrotation Xrotation Yrotation 
								End Site
								{
									OFFSET 0.0 0.0 0.0
								}
							}
						}
					}
				}
			}
		}
		JOINT UpperLeg_L
		{
			OFFSET -2.19248 -6.46944 0.0
			CHANNELS 6 Xposition Yposition Zposition Zrotation Xrotation Yrotation 
			JOINT LowerLeg_L
			{
				OFFSET 39.0811 0.0 -1.23785e-05
				CHANNELS 6 Xposition Yposition Zposition Zrotation Xrotation Yrotation 
				JOINT Foot_L
				{
					OFFSET 40.9854 0.0 -1.26872e-05
					CHANNELS 6 Xposition Yposition Zposition Zrotation Xrotation Yrotation 
					JOINT Toes_L
					{
						OFFSET 11.7543 0.0 0.0
						CHANNELS 6 Xposition Yposition Zposition Zrotation Xrotation Yrotation 
						End Site
						{
							OFFSET 0.0 0.0 0.0
						}
					}
				}
			}
		}
		JOINT UpperLeg_R
		{
			OFFSET -2.19251 6.46944 0.0
			CHANNELS 6 Xposition Yposition Zposition Zrotation Xrotation Yrotation 
			JOINT LowerLeg_R
			{
				OFFSET -39.0811 -0.00228153 -0.0401928
				CHANNELS 6 Xposition Yposition Zposition Zrotation Xrotation Yrotation 
				JOINT Foot_R
				{
					OFFSET -40.9854 0.0 0.0
					CHANNELS 6 Xposition Yposition Zposition Zrotation Xrotation Yrotation 
					JOINT Toes_R
					{
						OFFSET -11.7543 0.0 0.0
						CHANNELS 6 Xposition Yposition Zposition Zrotation Xrotation Yrotation 
						End Site
						{
							OFFSET 0.0 0.0 0.0
						}
					}
				}
			}
		}
	}
}
MOTION
Frames:	4
Frame Time:	0.0333333
0.000000 0.000000 0.000000 0.000000 0.000000 -0.000000 -1.158940 83.083900 -2.051770 89.406500 -6.768810 11.432800 15.735700 0.000005 -0.000001 90.113600 80.640500 -90.451000 8.984550 -0.406207 -0.000000 10.953200 0.027472 -0.677084 16.377300 -0.000001 -0.000001 -2.214810 -3.357350 2.255430 6.456720 -0.000001 -0.000000 -3.056680 -4.093960 6.857070 12.994200 -0.242716 4.980390 -91.916100 6.687120 -73.971000 5.348090 -0.000007 -0.000001 -67.210500 18.272300 -8.338370 24.328600 0.000019 0.000005 12.110600 16.163500 -37.631500 22.291600 -0.000001 0.000005 8.809140 5.382630 -2.413200 12.994500 -0.242716 -4.980390 88.172600 9.991180 -79.580400 -5.348130 -0.000001 -0.000004 -60.269000 31.624200 -7.214020 -24.328900 0.000322 -0.000009 1.658760 2.581770 -32.762300 -22.291500 -0.000108 -0.000004 18.975200 5.482830 -5.856970 -2.192480 -6.469440 -0.000000 -171.371000 -19.260000 -12.837200 39.081100 -0.000007 -0.000012 -0.317545 0.185775 59.671800 40.985400 -0.000006 -0.000013 3.003120 9.191930 -84.323400 11.754300 -0.000000 0.000003 -0.000500 -0.003980 -16.723100 -2.192510 6.469440 -0.000001 176.241000 13.345400 165.601000 -39.081100 -0.002282 -0.040193 0.072764 -0.039699 60.287600 -40.985400 0.000008 0.000006 8.485620 7.507120 -84.329100 -11.754300 -0.000006 -0.000006 -0.882459 -1.091980 -16.851700
0.000000 0.000000 0.000000 0.000000 0.000000 -0.000000 -1.049540 84.701400 -1.511180 89.799700 -6.764660 11.349500 15.735700 0.000005 -0.000001 88.942100 81.253500 -88.616900 8.984550 -0.406207 -0.000000 9.725030 -0.315482 0.676790 16.377300 -0.000001 -0.000001 -0.464351 -3.444020 2.283180 6.456720 -0.000001 -0.000000 -2.073450 -3.773430 5.592910 12.994200 -0.242716 4.980390 -91.693300 5.550840 -73.003900 5.348090 -0.000007 -0.000001 -64.125700 14.068400 -13.194600 24.328600 0.000019 0.000005 13.029100 13.958600 -43.806100 22.291600 -0.000001 0.000005 7.984890 5.393700 -2.737910 12.994500 -0.242716 -4.980390 87.996600 9.985570 -78.594700 -5.348130 -0.000001 -0.000004 -61.461000 29.449900 -5.504060 -24.328900 0.000322 -0.000009 1.333670 2.261320 -30.552600 -22.291500 -0.000108 -0.000004 19.495300 5.475280 -5.567760 -2.192480 -6.469440 -0.000000 -172.375000 -17.876600 -10.199500 39.081100 -0.000007 -0.000012 -0.316743 0.225142 54.595400 40.985400 -0.000006 -0.000013 2.044500 7.922240 -82.121800 11.754300 -0.000000 0.000003 -0.000500 -0.003985 -16.723200 -2.192510 6.469440 -0.000001 175.676000 13.253400 168.223000 -39.081100 -0.002282 -0.040193 0.061449 -0.039938 55.552700 -40.985400 0.000008 0.000006 8.098890 7.920800 -82.285500 -11.754300 -0.000006 -0.000006 -0.837454 -1.033840 -16.936900
0.000000 0.000000 0.000000 0.000000 0.000000 -0.000000 -1.079360 86.911700 -0.949593 90.048600 -6.039870 11.242000 15.735700 0.000005 -0.000001 87.586800 82.013800 -86.514000 8.984550 -0.406207 -0.000000 8.199810 -0.665456 2.191300 16.377300 -0.000001 -0.000001 2.296640 -4.096290 2.366560 6.456720 -0.000001 -0.000000 -0.817573 -4.220510 4.065290 12.994200 -0.242716 4.980390 -91.290900 4.036330 -72.247400 5.348090 -0.000007 -0.000001 -57.128600 7.780610 -23.351200 24.328600 0.000019 0.000005 14.463300 12.300000 -50.454600 22.291600 -0.000001 0.000005 10.316200 5.406420 -3.144640 12.994500 -0.242716 -4.980390 87.894800 9.352520 -77.253400 -5.348130 -0.000001 -0.000004 -62.975100 27.457900 -3.022200 -24.328900 0.000322 -0.000009 0.168482 0.306220 -28.935900 -22.291500 -0.000108 -0.000004 19.716500 5.485120 -5.945880 -2.192480 -6.469440 -0.000000 -173.272000 -15.957700 -6.429250 39.081100 -0.000007 -0.000012 -0.301101 0.280689 47.010000 40.985400 -0.000006 -0.000013 1.079800 6.866160 -78.614900 11.754300 -0.000000 0.000003 -0.000419 -0.003435 -16.704000 -2.192510 6.469440 -0.000001 175.092000 14.177100 172.227000 -39.081100 -0.002282 -0.040193 0.048748 -0.040483 48.336100 -40.985400 0.000008 0.000006 7.677330 8.775630 -79.021000 -11.754300 -0.000006 -0.000006 -0.774509 -0.952641 -17.124200
0.000000 0.000000 0.000000 0.000000 0.000000 -0.000000 -1.292920 88.918200 -0.628537 89.685200 -4.859670 10.072000 15.735700 0.000005 -0.000001 84.950900 83.100200 -83.002400 8.984550 -0.406207 -0.000000 6.005290 -1.241130 3.957980 16.377300 -0.000001 -0.000001 5.115730 -5.268260 2.721040 6.456720 -0.000001 -0.000000 0.737255 -5.076660 2.873700 12.994200 -0.242716 4.980390 -90.732400 2.301660 -72.346200 5.348090 -0.000007 -0.000001 -50.164200 -3.912840 -35.430200 24.328600 0.000019 0.000005 9.499900 6.383560 -56.418800 22.291600 -0.000001 0.000005 13.847100 5.412390 -3.334630 12.994500 -0.242716 -4.980390 87.869800 8.283200 -75.522100 -5.348130 -0.000001 -0.000004 -63.547700 26.523700 -0.937410 -24.328900 0.000322 -0.000009 0.237121 0.438246 -28.521900 -22.291500 -0.000108 -0.000004 17.983000 5.479830 -5.737520 -2.192480 -6.469440 -0.000000 -173.467000 -14.575000 -3.807700 39.081100 -0.000007 -0.000012 -0.250772 0.306140 39.322800 40.985400 -0.000006 -0.000013 0.475553 6.842260 -74.843500 11.754300 -0.000000 0.000003 -0.000280 -0.002458 -16.669300 -2.192510 6.469440 -0.000001 175.306000 16.415100 175.455000 -39.081100 -0.002282 -0.040193 0.035904 -0.038197 40.503200 -40.985400 0.000008 0.000006 7.312440 10.212500 -75.447100 -11.754300 -0.000006 -0.000006 -0.641870 -0.787624 -17.267300
